<svg width="75" height="74" viewBox="0 0 75 74" fill="none" xmlns="http://www.w3.org/2000/svg">
<path fill-rule="evenodd" clip-rule="evenodd" d="M21.6953 72.9958C33.3883 63.4638 36.4966 50.2611 40.4189 37.3248C42.2945 30.2779 44.8319 23.424 47.9972 16.8546C50.4394 12.1478 54.5541 8.13666 58.5061 4.42154C62.0288 1.10606 66.7208 1.97933 70.1251 5.73886C73.5294 9.49838 73.3962 12.8435 70.1251 16.5734C62.7245 24.8473 60.0454 35.1786 57.0112 45.4655C55.3627 51.6947 52.8729 57.6702 49.6105 63.227C43.764 72.5222 33.5807 75.8821 21.6953 72.9958Z" fill="#78F67D"/>
<path fill-rule="evenodd" clip-rule="evenodd" d="M52.1563 1.07646C41.7954 9.88322 38.0211 21.6502 34.6464 33.6393C31.6861 44.0002 29.3475 54.7311 22.2577 63.4046C20.3845 65.6824 18.2425 67.725 15.8784 69.488C11.5416 72.6554 7.30844 72.0486 3.87454 68.0818C0.440647 64.1151 0.766275 60.9476 4.45179 56.8773C10.8015 49.8467 13.525 41.1731 16.1448 32.3664C18.0986 25.7946 19.8895 19.0452 23.0274 12.9915C28.6223 2.26056 40.1673 -2.25383 52.1563 1.07646Z" fill="#78F67D"/>
<path fill-rule="evenodd" clip-rule="evenodd" d="M48.8557 72.6702C56.4488 67.7858 59.3942 60.0743 61.6736 51.9484C63.3758 45.8651 64.6339 39.619 66.7061 33.6689C68.3132 29.444 70.6143 25.517 73.5146 22.0499C73.6478 33.8909 74.4175 45.6135 73.7071 57.3361C73.1002 67.1642 65.4331 73.0699 55.5459 73.2623C53.4293 73.2623 51.3275 73.5287 49.2109 73.6619L48.8557 72.6702Z" fill="#78F67D"/>
<path fill-rule="evenodd" clip-rule="evenodd" d="M25.6621 1.01727C16.3817 7.41142 13.8211 16.751 11.1421 26.1794C9.0847 33.2841 6.34646 40.1963 3.74143 47.1232C2.26131 50.5275 2.08369 49.8911 1.0476 50.8088C0.618365 50.4979 0.203929 50.3203 0.203929 50.3203C0.203929 39.3526 -0.254911 28.37 0.203929 17.4319C0.736775 7.39662 8.68506 0.662042 18.6611 0.676843C20.7333 0.676843 22.8203 0.86926 25.6621 1.01727Z" fill="#78F67D"/>
</svg>
