<svg width="347" height="133" viewBox="0 0 347 133" fill="none" xmlns="http://www.w3.org/2000/svg">
<path d="M122 84.3886V70.6512H140.617V64.1803H122V54.0497H141.678V47.3136H114.999V84.3886H122Z" fill="#213440"/>
<path d="M166.541 61.8466C165.056 59.2476 161.714 57.6034 158.213 57.6034C150.576 57.5503 144.582 62.2709 144.582 71.2877C144.582 80.4636 150.31 85.2372 158.054 85.1842C160.971 85.1311 165.056 83.646 166.541 80.5697L166.859 84.3886H172.958V58.2398H166.753L166.541 61.8466ZM158.797 63.3847C168.98 63.3847 168.98 79.2437 158.797 79.2437C154.501 79.2437 151.053 76.2734 151.053 71.2877C151.053 66.3019 154.501 63.3847 158.797 63.3847Z" fill="#213440"/>
<path d="M204.163 84.3886V70.6512C204.163 62.43 199.231 57.8155 193.078 57.8155C189.79 57.8155 187.138 59.1415 184.486 61.7405L184.061 58.1868H178.28V84.3886H184.698V71.0225C184.698 67.0445 187.403 63.703 191.381 63.703C195.518 63.703 197.693 66.7262 197.693 70.7042V84.3886H204.163Z" fill="#213440"/>
<path d="M222.401 63.6499C226.485 63.6499 229.986 66.7262 229.986 71.2877C229.986 76.0082 226.485 78.9785 222.401 78.9785C218.264 78.9785 214.975 75.8491 214.975 71.2877C214.975 66.5671 218.264 63.6499 222.401 63.6499ZM230.41 47.3136V61.7935C228.872 59.0885 224.576 57.6034 221.817 57.6034C214.18 57.6034 208.504 62.2709 208.504 71.2877C208.504 79.8802 214.286 84.972 221.977 84.972C225.159 84.972 228.394 83.9112 230.41 80.7818L230.834 84.3886H236.881V47.3136H230.41Z" fill="#213440"/>
<path d="M254.817 57.7094C246.49 57.7094 241.292 63.8621 241.292 71.3407C241.292 78.8724 246.384 84.972 254.87 84.972C263.356 84.972 268.501 78.8724 268.501 71.3407C268.501 63.8621 263.144 57.7094 254.817 57.7094ZM254.87 63.5969C259.219 63.5969 261.977 67.4158 261.977 71.3407C261.977 75.3187 259.591 79.0315 254.87 79.0315C250.15 79.0315 247.763 75.3187 247.763 71.3407C247.763 67.4158 250.203 63.5969 254.87 63.5969Z" fill="#213440"/>
<path d="M272.968 58.2398V84.3886H279.439V70.5982C279.439 65.7715 282.569 63.9682 285.963 63.9682C288.085 63.9682 289.305 64.5516 290.631 65.6654L293.548 60.0432C292.116 58.6111 289.517 57.5503 286.812 57.5503C284.16 57.5503 281.455 58.0277 279.439 61.2631L278.962 58.2398H272.968Z" fill="#213440"/>
<path d="M316.493 61.8466C315.008 59.2476 311.666 57.6034 308.165 57.6034C300.528 57.5503 294.534 62.2709 294.534 71.2877C294.534 80.4636 300.262 85.2372 308.006 85.1842C310.923 85.1311 315.008 83.646 316.493 80.5697L316.811 84.3886H322.91V58.2398H316.705L316.493 61.8466ZM308.749 63.3847C318.932 63.3847 318.932 79.2437 308.749 79.2437C304.453 79.2437 301.005 76.2734 301.005 71.2877C301.005 66.3019 304.453 63.3847 308.749 63.3847Z" fill="#213440"/>
<g clip-path="url(#clip0_13_1513)">
<path fill-rule="evenodd" clip-rule="evenodd" d="M44.924 100.075C55.668 91.3168 58.524 79.1856 62.128 67.2992C63.8514 60.8243 66.1828 54.5267 69.0912 48.4904C71.3352 44.1656 75.116 40.48 78.7472 37.0664C81.984 34.02 86.2952 34.8224 89.4232 38.2768C92.5512 41.7312 92.4288 44.8048 89.4232 48.232C82.6232 55.8344 80.1616 65.3272 77.3736 74.7792C75.859 80.5029 73.5712 85.9935 70.5736 91.0992C65.2016 99.64 55.8448 102.727 44.924 100.075Z" fill="#61E866"/>
<path fill-rule="evenodd" clip-rule="evenodd" d="M72.9128 33.9928C63.3928 42.0848 59.9248 52.8968 56.824 63.9128C54.104 73.4328 51.9552 83.2928 45.4408 91.2624C43.7196 93.3553 41.7515 95.2322 39.5792 96.852C35.5944 99.7624 31.7048 99.2048 28.5496 95.56C25.3944 91.9152 25.6936 89.0048 29.08 85.2648C34.9144 78.8048 37.4168 70.8352 39.824 62.7432C41.6192 56.7048 43.2648 50.5032 46.148 44.9408C51.2888 35.0808 61.8968 30.9328 72.9128 33.9928Z" fill="#61E866"/>
<path fill-rule="evenodd" clip-rule="evenodd" d="M69.88 99.776C76.8568 95.288 79.5632 88.2024 81.6576 80.736C83.2216 75.1464 84.3776 69.4072 86.2816 63.94C87.7583 60.058 89.8727 56.4498 92.5376 53.264C92.66 64.144 93.3672 74.9152 92.7144 85.6864C92.1568 94.7168 85.112 100.143 76.0272 100.32C74.0824 100.32 72.1512 100.565 70.2064 100.687L69.88 99.776Z" fill="#61E866"/>
<path fill-rule="evenodd" clip-rule="evenodd" d="M48.5688 33.9384C40.0416 39.8136 37.6888 48.3952 35.2272 57.0584C33.3368 63.5864 30.8208 69.9376 28.4272 76.3024C27.0672 79.4304 26.1332 79.5662 25.952 79.6888C25.1768 80.2136 25.1768 79.24 25.1768 79.24C25.1768 69.1624 24.7552 59.0712 25.1768 49.0208C25.6664 39.8 32.9696 33.612 42.136 33.6256C44.04 33.6256 45.9576 33.8024 48.5688 33.9384Z" fill="#61E866"/>
</g>
<defs>
<clipPath id="clip0_13_1513">
<rect width="68" height="68" fill="white" transform="translate(25 33)"/>
</clipPath>
</defs>
</svg>
