<svg width="77" height="77" viewBox="0 0 77 77" fill="none" xmlns="http://www.w3.org/2000/svg">
<g clip-path="url(#clip0_296_3647)">
<path fill-rule="evenodd" clip-rule="evenodd" d="M22.561 75.9528C34.727 66.0352 37.961 52.2984 42.042 38.8388C43.9935 31.5068 46.6335 24.3757 49.9268 17.5406C52.4678 12.6434 56.749 8.46996 60.8608 4.60456C64.526 1.15496 69.4078 2.06356 72.9498 5.97516C76.4918 9.88676 76.3532 13.3672 72.9498 17.248C65.2498 25.8566 62.4624 36.6058 59.3054 47.3088C57.5903 53.79 54.9998 60.0072 51.6054 65.7888C45.5224 75.46 34.9272 78.9557 22.561 75.9528Z" fill="#78F67D"/>
<path fill-rule="evenodd" clip-rule="evenodd" d="M54.2542 1.1244C43.4742 10.2874 39.5472 22.5304 36.036 35.0044C32.956 45.7844 30.5228 56.9494 23.1462 65.9738C21.1972 68.3437 18.9685 70.4689 16.5088 72.3032C11.9966 75.5988 7.5922 74.9674 4.0194 70.8402C0.4466 66.713 0.7854 63.4174 4.62 59.1824C11.2266 51.8674 14.0602 42.843 16.786 33.68C18.8188 26.8424 20.6822 19.82 23.947 13.5214C29.7682 2.3564 41.7802 -2.3406 54.2542 1.1244Z" fill="#78F67D"/>
<path fill-rule="evenodd" clip-rule="evenodd" d="M50.82 75.6143C58.7202 70.5323 61.7848 62.5089 64.1564 54.0543C65.9274 47.7249 67.2364 41.2261 69.3924 35.0353C71.0646 30.6395 73.4588 26.5537 76.4764 22.9463C76.615 35.2663 77.4158 47.4631 76.6766 59.6599C76.0452 69.8855 68.068 76.0301 57.7808 76.2303C55.5786 76.2303 53.3918 76.5075 51.1896 76.6461L50.82 75.6143Z" fill="#78F67D"/>
<path fill-rule="evenodd" clip-rule="evenodd" d="M26.6882 1.06272C17.0324 7.71552 14.3682 17.4329 11.5808 27.2427C9.4402 34.6347 6.5912 41.8265 3.8808 49.0337C2.3408 52.5757 1.28318 52.7294 1.078 52.8683C0.2002 53.4626 0.2002 52.3601 0.2002 52.3601C0.2002 40.9487 -0.2772 29.5219 0.2002 18.1413C0.7546 7.70012 9.0244 0.693121 19.404 0.708521C21.56 0.708521 23.7314 0.908721 26.6882 1.06272Z" fill="#78F67D"/>
</g>
<defs>
<clipPath id="clip0_296_3647">
<rect width="77" height="77" fill="white"/>
</clipPath>
</defs>
</svg>
